<svg xmlns="http://www.w3.org/2000/svg" version="1.1" xmlns:xlink="http://www.w3.org/1999/xlink" xmlns:svgjs="http://svgjs.dev/svgjs" width="1000" height="1000" viewBox="0 0 1000 1000"><rect width="1000" height="1000" fill="#ffffff"></rect><g transform="matrix(0.7,0,0,0.7,149.90044910179654,149.90044910179637)"><svg viewBox="0 0 334 334" data-background-color="#bb84e8" preserveAspectRatio="xMidYMid meet" height="1000" width="1000" xmlns="http://www.w3.org/2000/svg" xmlns:xlink="http://www.w3.org/1999/xlink"><g id="tight-bounds" transform="matrix(1,0,0,1,0.04749999999998522,0.04750000000001364)"><svg viewBox="0 0 333.90454557049503 333.90454557049503" height="333.90454557049503" width="333.90454557049503"><g><svg></svg></g><g><svg viewBox="0 0 333.90454557049503 333.90454557049503" height="333.90454557049503" width="333.90454557049503"><g><path d="M0 166.952c0-92.205 74.747-166.952 166.952-166.952 92.205 0 166.952 74.747 166.953 166.952 0 92.205-74.747 166.952-166.953 166.953-92.205 0-166.952-74.747-166.952-166.953zM166.952 326.765c88.262 0 159.813-71.551 159.813-159.813 0-88.262-71.551-159.813-159.813-159.813-88.262 0-159.813 71.551-159.813 159.813 0 88.262 71.551 159.813 159.813 159.813z" data-fill-palette-color="tertiary" fill="#454545" stroke="transparent"></path><ellipse rx="160.27418187383762" ry="160.27418187383762" cx="166.95227278524752" cy="166.95227278524752" fill="#454545" stroke="transparent" stroke-width="0" fill-opacity="1" data-fill-palette-color="tertiary"></ellipse></g><g transform="matrix(1,0,0,1,91.14220563841698,71.17305217166896)"><svg viewBox="0 0 151.62013429366107 191.55844122715712" height="191.55844122715712" width="151.62013429366107"><g><svg viewBox="0 0 151.62013429366107 191.55844122715712" height="191.55844122715712" width="151.62013429366107"><g><svg viewBox="0 0 213.1584412271571 269.30657281176093" height="191.55844122715712" width="151.62013429366107"><g transform="matrix(1,0,0,1,0,158.00706037613574)"><svg viewBox="0 0 213.1584412271571 111.29951243562516" height="111.29951243562516" width="213.1584412271571"><g><svg viewBox="0 0 213.1584412271571 111.29951243562516" height="111.29951243562516" width="213.1584412271571"><g><svg viewBox="0 0 213.1584412271571 111.29951243562516" height="111.29951243562516" width="213.1584412271571"><g transform="matrix(1,0,0,1,0,0)"><svg width="213.1584412271571" viewBox="0.5400000214576721 -32.619998931884766 62.84000015258789 32.81999969482422" height="111.29951243562516" data-palette-color="#bb84e8"><path d="M20.65-1.61L20.65-1.61Q21.73-1.61 22.85-2.08 23.97-2.54 23.97-3.32L23.97-3.32Q23.97-3.42 22.75-6.59L22.75-6.59 21.29-10.16Q21.09-10.35 20.95-10.35L20.95-10.35Q20.02-10.4 16.26-10.4L16.26-10.4Q13.04-10.4 11.33-10.35L11.33-10.35Q11.13-10.35 10.99-10.11L10.99-10.11Q10.99-10.11 9.38-6.4L9.38-6.4Q8.4-4.2 8.4-3.42 8.4-2.64 9.28-2.2 10.16-1.76 10.82-1.68 11.47-1.61 11.96-1.61L11.96-1.61Q12.11-1.56 12.11-0.83 12.11-0.1 12.01 0.2L12.01 0.2Q11.38 0.15 9.45-0.02 7.52-0.2 6.3-0.2 5.08-0.2 3.37-0.02 1.66 0.15 0.73 0.2L0.73 0.2Q0.54 0 0.54-0.54L0.54-0.54Q0.54-1.56 0.63-1.56L0.63-1.56Q1.22-1.56 2.59-2.08 3.96-2.59 4.3-3.13L4.3-3.13Q4.69-3.71 5.1-4.57 5.52-5.42 5.76-5.96L5.76-5.96 6.01-6.54 16.8-31.35Q17.33-32.62 18.6-32.62L18.6-32.62Q19.34-32.62 19.78-31.98L19.78-31.98 29.79-7.23Q30.71-4.98 31.4-3.22L31.4-3.22Q31.69-2.44 33.01-2.03 34.33-1.61 35.01-1.61L35.01-1.61Q35.21-1.61 35.21-0.78 35.21 0.05 35.11 0.2L35.11 0.2Q34.91 0.2 32.1 0 29.3-0.2 28.03-0.2L28.03-0.2Q27.69-0.2 20.65 0.2L20.65 0.2Q20.46 0 20.46-0.81 20.46-1.61 20.65-1.61ZM12.65-13.48L12.65-13.48Q14.11-13.33 16.26-13.33L16.26-13.33Q18.21-13.33 19.73-13.43L19.73-13.43 19.87-13.67 16.36-22.41 12.55-13.67Q12.55-13.48 12.65-13.48ZM56.05-8.59L56.05-8.59Q56.05-15.38 50.05-15.38L50.05-15.38Q48.44-15.38 47.56-15.14L47.56-15.14Q47.02-14.94 47.02-14.7L47.02-14.7 47.02-3.71Q47.02-3.27 47.36-3.03L47.36-3.03Q47.85-2.69 51.02-2.69L51.02-2.69Q56.05-2.69 56.05-8.59ZM40.18-6.98L40.18-6.98 40.18-25.44Q40.18-28.13 39.89-29.25L39.89-29.25Q39.74-29.64 38.45-30.13 37.16-30.62 36.62-30.62L36.62-30.62Q36.42-30.62 36.42-31.49L36.42-31.49Q36.42-32.28 36.57-32.42L36.57-32.42Q40.48-32.18 43.75-32.18L43.75-32.18Q45.36-32.18 51.12-32.28L51.12-32.28Q52.93-32.28 54.78-31.81 56.64-31.35 58.37-30.37 60.1-29.39 61.18-27.64 62.25-25.88 62.25-23.58L62.25-23.58Q62.25-21.04 60.79-19.38 59.32-17.72 58.2-17.29L58.2-17.29Q57.81-17.14 57.96-16.99L57.96-16.99Q59.67-16.7 61.52-14.58 63.38-12.45 63.38-9.13L63.38-9.13Q63.38-4.93 59.96-2.42 56.54 0.1 50.97 0L50.97 0 43.8-0.1Q42.33-0.1 40.55-0.02 38.77 0.05 37.69 0.1L37.69 0.1 36.67 0.2Q36.47 0 36.47-0.63L36.47-0.63Q36.47-1.61 36.67-1.61L36.67-1.61Q37.25-1.61 38.5-1.95 39.74-2.29 39.89-2.69L39.89-2.69Q40.18-3.81 40.18-6.98ZM52.34-18.55L52.34-18.55Q53.07-18.95 53.46-19.29 53.85-19.63 54.32-20.73 54.78-21.83 54.78-23.54L54.78-23.54Q54.78-29.59 50.29-29.59L50.29-29.59Q48.14-29.59 47.46-29.39L47.46-29.39Q47.02-29.3 47.02-28.81L47.02-28.81 47.02-24.37 47.02-18.8Q47.02-18.12 49.56-18.12L49.56-18.12Q51.46-18.12 52.34-18.55Z" opacity="1" transform="matrix(1,0,0,1,0,0)" fill="#bb84e8" class="undefined-text-0" data-fill-palette-color="quaternary" id="text-0"></path></svg></g></svg></g></svg></g></svg></g><g transform="matrix(1,0,0,1,40.713262274387006,0)"><svg viewBox="0 0 131.7319166783831 131.7319166783831" height="131.7319166783831" width="131.7319166783831"><g><svg xmlns="http://www.w3.org/2000/svg" xmlns:xlink="http://www.w3.org/1999/xlink" version="1.1" x="0" y="0" viewBox="0 0 60 60" enable-background="new 0 0 60 60" xml:space="preserve" height="131.7319166783831" width="131.7319166783831" class="icon-icon-0" data-fill-palette-color="quaternary" id="icon-0"><g fill="#bb84e8" data-fill-palette-color="quaternary"><path fill="#bb84e8" d="M37.54 52.33c0.14 0.4 0.52 0.67 0.94 0.67h11.39c0.44 0 0.82-0.28 0.95-0.7l3.12-9.89c0.12-0.37 0.01-0.78-0.29-1.04l-9-8.11c-0.38-0.34-0.95-0.34-1.33 0l-9 8.03c-0.3 0.27-0.41 0.69-0.28 1.08L37.54 52.33zM44 35.34l7.86 7.08L49.15 51H39.2l-3.03-8.67L44 35.34z" data-fill-palette-color="quaternary"></path><path fill="#bb84e8" d="M59 0H1C0.45 0 0 0.45 0 1v58c0 0.55 0.45 1 1 1h58c0.55 0 1-0.45 1-1V1C60 0.45 59.55 0 59 0zM58 58H2V2h56V58z" data-fill-palette-color="quaternary"></path><path fill="#bb84e8" d="M7 26h18c0.55 0 1-0.45 1-1V7c0-0.55-0.45-1-1-1H7C6.45 6 6 6.45 6 7v18C6 25.55 6.45 26 7 26zM8 8h16v16H8V8z" data-fill-palette-color="quaternary"></path><path fill="#bb84e8" d="M35 26h18c0.01 0 0.01 0 0.02 0 0.55 0 1-0.45 1-1 0-0.23-0.08-0.44-0.21-0.61L44.89 6.55c-0.34-0.68-1.45-0.68-1.79 0l-9 18c-0.16 0.31-0.14 0.68 0.04 0.97C34.33 25.82 34.65 26 35 26zM44 9.24L51.38 24H36.62L44 9.24z" data-fill-palette-color="quaternary"></path><path fill="#bb84e8" d="M16 54c5.51 0 10-4.49 10-10s-4.49-10-10-10S6 38.49 6 44 10.49 54 16 54zM16 36c4.41 0 8 3.59 8 8s-3.59 8-8 8-8-3.59-8-8S11.59 36 16 36z" data-fill-palette-color="quaternary"></path></g></svg></g></svg></g><g></g></svg></g></svg></g></svg></g></svg></g><defs></defs></svg><rect width="333.90454557049503" height="333.90454557049503" fill="none" stroke="none" visibility="hidden"></rect></g></svg></g></svg>